<?xml version="1.0" encoding="iso-8859-1"?>
<!-- Generator: Adobe Illustrator 19.0.0, SVG Export Plug-In . SVG Version: 6.00 Build 0)  -->
<svg version="1.1" id="Capa_1" xmlns="http://www.w3.org/2000/svg" xmlns:xlink="http://www.w3.org/1999/xlink" x="0px" y="0px"
	 viewBox="0 0 512 512" style="enable-background:new 0 0 512 512;" xml:space="preserve">
<polygon style="fill:#A1B8D8;" points="288.462,473.045 288.462,330.901 235.984,310.885 256,512 "/>
<polygon style="fill:#D6E6FD;" points="223.538,473.045 256,512 256,310.885 223.538,330.901 "/>
<polygon style="fill:#DA1716;" points="235.984,285.993 351.116,265.977 329.474,64.924 235.984,44.908 "/>
<g>
	<polygon style="fill:#FF4847;" points="256,44.908 182.526,64.924 160.884,265.977 256,285.993 	"/>
	<path style="fill:#FF4847;" d="M432.271,330.901c0-35.856-29.068-64.925-64.924-64.925H256l-20.016,32.462L256,330.901H432.271
		L432.271,330.901z"/>
	<path style="fill:#FF4847;" d="M367.347,64.924L367.347,64.924C367.347,29.067,338.279,0,302.423,0H256l-20.016,32.462L256,64.924
		H367.347z"/>
</g>
<g>
	<path style="fill:#FF7473;" d="M256,0h-46.423c-35.857,0-64.924,29.067-64.924,64.924l0,0H256V0z"/>
	<path style="fill:#FF7473;" d="M144.653,265.977c-35.857,0-64.924,29.068-64.924,64.925l0,0H256v-64.925H144.653z"/>
</g>
<g>
</g>
<g>
</g>
<g>
</g>
<g>
</g>
<g>
</g>
<g>
</g>
<g>
</g>
<g>
</g>
<g>
</g>
<g>
</g>
<g>
</g>
<g>
</g>
<g>
</g>
<g>
</g>
<g>
</g>
</svg>
